<?xml version="1.0" encoding="UTF-8" standalone="no"?>
<!-- Created with Inkscape (http://www.inkscape.org/) -->

<svg
   xmlns:dc="http://purl.org/dc/elements/1.1/"
   xmlns:cc="http://creativecommons.org/ns#"
   xmlns:rdf="http://www.w3.org/1999/02/22-rdf-syntax-ns#"
   xmlns:svg="http://www.w3.org/2000/svg"
   xmlns="http://www.w3.org/2000/svg"
   version="1.1"
   width="390"
   height="440"
   id="svg3039">
  <metadata
     id="metadata3045">
    <rdf:RDF>
      <cc:Work
         rdf:about="">
        <dc:format>image/svg+xml</dc:format>
        <dc:type
           rdf:resource="http://purl.org/dc/dcmitype/StillImage" />
        <dc:title></dc:title>
      </cc:Work>
    </rdf:RDF>
  </metadata>
  <defs
     id="defs3043" />
  <g
     transform="translate(-502.18015,27.675823)"
     id="g4300">
    <path
       d="m 585.0625,-1.15625 c -5.91341,-0.014573 -10.89174,1.89682765 -10.89174,1.89682765 -0.0221,0.0859612 1.90631,0.0719224 4.07924,0.0719224 2.17293,0 6.11043,0.41254705 8.75,0.90625005 2.63957,0.493703 7.93125,1.454866 11.78125,2.125 15.14141,2.6355259 36.26637,9.1876609 54,16.7812499 10.58288,4.531618 12.9228,7.32386 12.71875,7.625 0,0 -14.07001,0.144603 -37.21875,0.28125 -12.92319,0.07629 -21.4059,0.101816 -27.03125,0.3125 l -11.28125,0 0,10.71875 5.65625,0 c 2.15572,0.212458 5.16435,0.25 9.375,0.25 13.90438,0 27.28955,1.753397 41.46875,5.4375 8.50692,2.210308 11.94016,3.336861 20.3125,6.53125 7.4126,2.828209 25.53573,12.395466 33.625,17.75 41.12852,27.224253 69.96312,67.82543 81.46875,114.78125 3.67914,15.01497 4.59781,22.29328 5.28125,41.5 l 0.625,17.5 7.5,0 7.5,0 0.28125,-31.46875 c 0.1455,-17.3055 0.61207,-31.83082 1.0625,-32.28125 0.96433,-0.96433 7.04061,16.50011 10.6875,30.75 4.53456,17.71835 6.02138,26.59347 8.625,51 1.13746,10.66252 1.37391,11.49845 2,7.5 3.4089,-21.77051 -3.63391,-68.75104 -14.84375,-99 C 793.87784,124.70579 763.97681,83.052825 727.28125,53.75 690.1303,24.083523 652.98607,8.086697 602.15625,-0.125 597.9252,-0.808539 590.97591,-1.1416769 585.0625,-1.15625 z"
       id="path3375"
       style="fill:#3465a4;fill-opacity:1" />
    <path
       d="m 579.6875,41.629442 c -4.18238,0.388463 -3.82808,0.339345 -4.8125,0.495558 -15.24681,2.419449 -1.13116,1.460634 5.8125,1.90625 4.24549,0.272459 9.3125,1.234375 9.3125,1.234375 0.065,0.04504 -0.0613,1.575194 0.0937,3.171875 l 0,30.5625 4.375,0 c 1.87339,0.319834 4.61026,0.517577 8.40625,0.625 11.70627,0.331278 24.20115,2.280524 33.90625,5.25 3.85,1.177986 8.03562,2.3682 9.28125,2.65625 7.30762,3.624224 15.44793,6.599772 21.71875,10.0625 27.9189,15.52297 51.10866,40.23196 64.46875,68.71875 10.67966,22.7715 13.94704,36.22255 14.9375,61.5 l 0.59375,15.5 15.4375,0.5 15.4375,0.5 0.71875,2.75 c 0.40446,1.51618 1.04108,6.24118 1.40625,10.5 0.36516,4.25881 0.97483,8.65 1.34375,9.75 0.64568,1.92524 0.95378,-5.2351 0.9375,-13.8125 0.14162,-0.36116 0.22258,-0.98495 0.21875,-1.9375 -0.004,-0.87601 -0.11409,-2.44154 -0.28125,-4.25 -0.1112,-5.35503 -0.33762,-10.60456 -0.71875,-14 -1.08006,-9.62204 -4.14501,-25.74961 -6.0625,-32 -12.11861,-39.50268 -27.3142,-65.95175 -54.34375,-94.5 C 690.18332,73.340179 645.51789,49.780542 601.75,43.4375 590.78402,41.848261 583.8417,41.243596 579.6875,41.629442 z"
       id="path3373"
       style="fill:#3465a4;fill-opacity:1" />
    <path
       d="m 582.23239,81.350032 c 2.26119,0.869338 6.4281,1.892236 8.79729,3.473461 -0.12725,9.575746 -0.24843,19.520107 -0.24843,29.207757 l 1.65625,0 c 0.63591,0.12735 2.06657,-0.0461 5.9375,0.375 19.28218,2.09746 41.01533,7.89306 60.21875,20.0625 10.03079,6.35663 28.79908,25.70156 35.03125,36.125 12.31625,20.59917 17.79356,39.95213 18.0625,63.71875 l 0.0937,8 13.5,0.25 c 15.79699,0.29479 18,1.04939 18,6.09375 0,1.92372 0.27678,3.22322 0.625,2.875 1.31434,-1.31435 -2.78507,-29.39243 -5.875,-40.21875 C 728.31267,177.26119 713.92961,153.22438 688.625,128.75 678.03165,118.50422 670.59626,112.7458 658.6875,105.5625 638.19378,93.200813 621.60363,87.174317 597.375,83.3125 592.06056,82.465429 583.38439,81.41486 582.23239,81.350032 z"
       id="path3371"
       style="fill:#a7a9ab;fill-opacity:1" />
    <path
       d="m 590.78125,118.625 0.15625,16 0,42.03125 c -0.0591,7.42534 2.2437,1.46963 3.5625,0.4375 3.07555,-2.50125 9.39289,-5.45785 14.59375,-6.8125 23.69527,-6.17183 47.88955,8.86186 53.75,33.375 2.67454,11.18708 1.00654,21.76254 -5.1875,32.90625 l -3.4375,6.21875 26.28125,0.28125 26.28125,0.25 0.34375,-2.34375 c 0.57582,-4.14632 -2.66467,-21.46099 -5.8125,-31.09375 -11.59451,-35.48056 -36.49116,-63.81644 -70.03125,-79.75 -11.86657,-5.63733 -19.99072,-8.06309 -36.5,-10.84375 z"
       id="path3369"
       style="fill:#a7a9ab;fill-opacity:1" />
    <path
       d="m 801.5,27.59375 0,0.125 -79.82176,-0.110485 c 36.70914,24.329405 64.43356,50.656156 81.75926,87.069675 l 0,-87.08424 z"
       id="path3315"
       style="fill:#09316b;fill-opacity:1" />
    <rect
       width="9.5550852"
       height="30.879238"
       x="590.78387"
       y="83.781776"
       id="rect4255"
       style="opacity:0;fill:#341b6f;fill-opacity:1" />
    <rect
       width="10.254237"
       height="36.006355"
       x="590.78387"
       y="84.480934"
       id="rect4258"
       style="opacity:0;fill:#341b6f;fill-opacity:1" />
    <rect
       width="18.061441"
       height="39.851696"
       x="590.55084"
       y="46.726692"
       id="rect4264"
       style="opacity:0;fill:#341b6f;fill-opacity:1" />
    <rect
       width="20.158897"
       height="43.114407"
       x="-590.78387"
       y="45.444912"
       transform="scale(-1,1)"
       id="rect4266"
       style="opacity:0;fill:#341b6f;fill-opacity:1" />
    <rect
       width="15.031779"
       height="42.764832"
       x="575.63562"
       y="44.862286"
       id="rect4271"
       style="opacity:0;fill:#341b6f;fill-opacity:1" />
    <rect
       width="79.237289"
       height="83.432205"
       x="723.38983"
       y="27.5"
       id="rect4280"
       style="opacity:0;fill:#341b6f;fill-opacity:1" />
    <rect
       width="18.915106"
       height="78.665627"
       x="784.53497"
       y="30.231621"
       id="rect4287"
       style="opacity:0;fill:#341b6f;fill-opacity:1" />
  </g>
  <text
     x="42.760502"
     y="378.67862"
     id="text4296"
     xml:space="preserve"
     style="font-size:76.68795776px;font-style:normal;font-variant:normal;font-weight:normal;font-stretch:normal;line-height:125%;letter-spacing:0px;word-spacing:0px;fill:#09316b;fill-opacity:1;stroke:none;font-family:Noto Serif;-inkscape-font-specification:Noto Serif"><tspan
       x="42.760502"
       y="378.67862"
       id="tspan4298"
       style="font-style:normal;font-variant:normal;font-weight:500;font-stretch:normal;letter-spacing:-4.19999981px;fill:#09316b;fill-opacity:1;font-family:Ubuntu;-inkscape-font-specification:Ubuntu Medium">AssuRFID</tspan></text>
  <text
     x="75.943542"
     y="408.67581"
     id="text4314"
     xml:space="preserve"
     style="font-size:40px;font-style:normal;font-variant:normal;font-weight:normal;font-stretch:normal;line-height:125%;letter-spacing:0px;word-spacing:0px;fill:#a4b3c6;fill-opacity:1;stroke:none;font-family:Noto Sans;-inkscape-font-specification:Noto Sans"><tspan
       x="75.943542"
       y="408.67581"
       id="tspan4318"
       style="font-size:20px;font-weight:bold;letter-spacing:3.04999924px;fill:#a4b3c6;fill-opacity:1;-inkscape-font-specification:Noto Sans Bold">Effortless Security</tspan></text>
</svg>
